<svg xmlns="http://www.w3.org/2000/svg" style="display:none">

  <symbol id="i-droplet" viewBox="0 0 24 24" fill="none" stroke="currentColor" stroke-width="1.6" stroke-linecap="round" stroke-linejoin="round">
    <path d="M12 2.5c3.2 4.2 6.5 8.4 6.5 12.2A6.5 6.5 0 0 1 5.5 14.7c0-3.8 3.3-8 6.5-12.2Z"/>
  </symbol>

  <symbol id="i-bottle" viewBox="0 0 24 24" fill="none" stroke="currentColor" stroke-width="1.6" stroke-linecap="round" stroke-linejoin="round">
    <path d="M9.5 2.5h5v3.2l1.6 2.4v11.4a2 2 0 0 1-2 2h-4.2a2 2 0 0 1-2-2V8.1l1.6-2.4V2.5Z"/>
    <path d="M8.9 12.5h6.2"/>
  </symbol>

  <symbol id="i-shirt" viewBox="0 0 24 24" fill="none" stroke="currentColor" stroke-width="1.6" stroke-linecap="round" stroke-linejoin="round">
    <path d="M8.2 3.5 5 6.2 6.7 9l1.7-1v12.5h7.2V8l1.7 1L19 6.2l-3.2-2.7c-.6.9-1.8 1.6-3.3 1.6s-2.7-.7-3.3-1.6Z"/>
  </symbol>

  <symbol id="i-dish" viewBox="0 0 24 24" fill="none" stroke="currentColor" stroke-width="1.6" stroke-linecap="round" stroke-linejoin="round">
    <ellipse cx="12" cy="13" rx="8" ry="3.2"/>
    <path d="M4 13c0 3.6 3.6 6 8 6s8-2.4 8-6"/>
    <path d="M9.3 5.5c.4 1 .2 1.9-.5 2.6M12 4.6v3.1M14.7 5.5c-.4 1-.2 1.9.5 2.6"/>
  </symbol>

  <symbol id="i-mop" viewBox="0 0 24 24" fill="none" stroke="currentColor" stroke-width="1.6" stroke-linecap="round" stroke-linejoin="round">
    <path d="M14.5 3 7 17.5"/>
    <path d="M5 17.5c-1 1-1.4 2.4-.9 3.8 1.4.5 2.8.1 3.8-.9.9-1 1.4-3 .4-4.3-1.2-1.1-2.3-.6-3.3.4Z"/>
    <path d="M12.8 6.8 17.2 9.2"/>
  </symbol>

  <symbol id="i-toilet" viewBox="0 0 24 24" fill="none" stroke="currentColor" stroke-width="1.6" stroke-linecap="round" stroke-linejoin="round">
    <path d="M7.5 9.5h9V20a1.5 1.5 0 0 1-1.5 1.5h-6A1.5 1.5 0 0 1 7.5 20V9.5Z"/>
    <path d="M7.5 9.5c0-3.3 2-5.5 4.5-5.5s4.5 2.2 4.5 5.5"/>
    <path d="M9.7 13.2c.6.6 1.4.9 2.3.9s1.7-.3 2.3-.9"/>
  </symbol>

  <symbol id="i-glass" viewBox="0 0 24 24" fill="none" stroke="currentColor" stroke-width="1.6" stroke-linecap="round" stroke-linejoin="round">
    <path d="M6.5 3.5h11l-1.2 14.6a2 2 0 0 1-2 1.9H9.7a2 2 0 0 1-2-1.9L6.5 3.5Z"/>
    <path d="M7.3 9.5h9.4"/>
  </symbol>

  <symbol id="i-leaf" viewBox="0 0 24 24" fill="none" stroke="currentColor" stroke-width="1.6" stroke-linecap="round" stroke-linejoin="round">
    <path d="M5 19c-1-6 2-13 14-14 1 9-4 14-14 14Z"/>
    <path d="M6 18c3-3.5 6-6.5 12.5-12"/>
  </symbol>

  <symbol id="i-shield" viewBox="0 0 24 24" fill="none" stroke="currentColor" stroke-width="1.6" stroke-linecap="round" stroke-linejoin="round">
    <path d="M12 3 4.5 6v6c0 5 3.4 7.8 7.5 9 4.1-1.2 7.5-4 7.5-9V6L12 3Z"/>
    <path d="M9 12.2 11.2 14.5 15.3 9.8"/>
  </symbol>

  <symbol id="i-spark" viewBox="0 0 24 24" fill="none" stroke="currentColor" stroke-width="1.6" stroke-linecap="round" stroke-linejoin="round">
    <path d="M12 3v4M12 17v4M3 12h4M17 12h4M5.6 5.6l2.8 2.8M15.6 15.6l2.8 2.8M5.6 18.4l2.8-2.8M15.6 8.4l2.8-2.8"/>
    <circle cx="12" cy="12" r="2.6"/>
  </symbol>

  <symbol id="i-tag" viewBox="0 0 24 24" fill="none" stroke="currentColor" stroke-width="1.6" stroke-linecap="round" stroke-linejoin="round">
    <path d="M11 3.5H6A1.5 1.5 0 0 0 4.5 5v5l9 9 6.5-6.5-9-9Z"/>
    <circle cx="8.2" cy="8.2" r="1.3"/>
  </symbol>

  <symbol id="i-house-heart" viewBox="0 0 24 24" fill="none" stroke="currentColor" stroke-width="1.6" stroke-linecap="round" stroke-linejoin="round">
    <path d="M4 11.5 12 4l8 7.5"/>
    <path d="M6 10.5V20h12v-9.5"/>
    <path d="M12 17.2c-2-1.4-3.4-2.5-3.4-4 0-1 .8-1.7 1.7-1.7.8 0 1.3.4 1.7 1 .4-.6.9-1 1.7-1 .9 0 1.7.7 1.7 1.7 0 1.5-1.4 2.6-3.4 4Z"/>
  </symbol>

  <symbol id="i-house" viewBox="0 0 24 24" fill="none" stroke="currentColor" stroke-width="1.6" stroke-linecap="round" stroke-linejoin="round">
    <path d="M4 11.5 12 4l8 7.5"/>
    <path d="M6 10.5V20h12v-9.5"/>
    <path d="M10 20v-5h4v5"/>
  </symbol>

  <symbol id="i-mail" viewBox="0 0 24 24" fill="none" stroke="currentColor" stroke-width="1.6" stroke-linecap="round" stroke-linejoin="round">
    <rect x="3.5" y="5.5" width="17" height="13" rx="2"/>
    <path d="M4.5 7 12 13l7.5-6"/>
  </symbol>

  <symbol id="i-phone" viewBox="0 0 24 24" fill="none" stroke="currentColor" stroke-width="1.6" stroke-linecap="round" stroke-linejoin="round">
    <path d="M6 3.5h3l1.3 4.2L8 9.8a11.3 11.3 0 0 0 6.2 6.2l2.1-2.3 4.2 1.3v3a1.5 1.5 0 0 1-1.6 1.5C11.4 19.1 4.9 12.6 4.5 5.1 4.4 4.2 5.1 3.5 6 3.5Z"/>
  </symbol>

  <symbol id="i-pin" viewBox="0 0 24 24" fill="none" stroke="currentColor" stroke-width="1.6" stroke-linecap="round" stroke-linejoin="round">
    <path d="M12 21s7-6.5 7-12a7 7 0 0 0-14 0c0 5.5 7 12 7 12Z"/>
    <circle cx="12" cy="9" r="2.4"/>
  </symbol>

  <symbol id="i-fb" viewBox="0 0 24 24" fill="none" stroke="currentColor" stroke-width="1.6" stroke-linecap="round" stroke-linejoin="round">
    <path d="M14.5 21v-7h2.3l.4-3h-2.7V8.8c0-.9.3-1.5 1.7-1.5h1.2V4.6c-.6-.1-1.5-.2-2.5-.2-2.6 0-4.2 1.5-4.2 4.4V11H8.4v3H11v7Z"/>
  </symbol>

  <symbol id="i-wa" viewBox="0 0 24 24" fill="none" stroke="currentColor" stroke-width="1.6" stroke-linecap="round" stroke-linejoin="round">
    <path d="M5 19.5 6.1 16A8 8 0 1 1 9 18.6Z"/>
    <path d="M9.3 9.6c.2 1.8 2 4 4 4.4"/>
  </symbol>

  <symbol id="i-doc" viewBox="0 0 24 24" fill="none" stroke="currentColor" stroke-width="1.6" stroke-linecap="round" stroke-linejoin="round">
    <path d="M7 3.5h7l3 3V20a1 1 0 0 1-1 1H7a1 1 0 0 1-1-1V4.5a1 1 0 0 1 1-1Z"/>
    <path d="M14 3.5V7h3"/>
    <path d="M9 14.5h6M9 17.5h4"/>
  </symbol>

  <symbol id="i-arrow" viewBox="0 0 24 24" fill="none" stroke="currentColor" stroke-width="1.8" stroke-linecap="round" stroke-linejoin="round">
    <path d="M5 12h14M13 6l6 6-6 6"/>
  </symbol>

  <symbol id="i-bubble" viewBox="0 0 24 24" fill="none" stroke="currentColor" stroke-width="1.6" stroke-linecap="round" stroke-linejoin="round">
    <circle cx="12" cy="12" r="7.5"/>
    <path d="M9 8.8c-1 .6-1.6 1.6-1.6 2.8"/>
  </symbol>
  <symbol id="i-globe" viewBox="0 0 24 24" fill="none" stroke="currentColor" stroke-width="1.6" stroke-linecap="round" stroke-linejoin="round">
    <circle cx="12" cy="12" r="8.5"/>
    <path d="M3.5 12h17M12 3.5c2.2 2.3 3.4 5.3 3.4 8.5s-1.2 6.2-3.4 8.5c-2.2-2.3-3.4-5.3-3.4-8.5S9.8 5.8 12 3.5Z"/>
  </symbol>

</svg>
